# Tiled2Unity generated file. Do not modify by hand.
# Wavefront file for 'mapa967_mesh_0003.obj'

# Vertices (Count = 16)
v -6 -4 0
v -7 -4 0
v -7 -3 0
v -6 -3 0
v -39 -8 0
v -40 -8 0
v -40 -7 0
v -39 -7 0
v -34 -11 0
v -35 -11 0
v -35 -10 0
v -34 -10 0
v -35 -11 0
v -36 -11 0
v -36 -10 0
v -35 -10 0

# Texture cooridinates (Count = 12)
vt 0.46875 0.3125
vt 0.484375 0.3125
vt 0.484375 0.3333333
vt 0.46875 0.3333333
vt 0.3125 0.1875
vt 0.328125 0.1875
vt 0.328125 0.2083333
vt 0.3125 0.2083333
vt 0.359375 0.8541667
vt 0.375 0.8541667
vt 0.375 0.875
vt 0.359375 0.875

# Normal
vn 0 0 -1

# Mesh description
g mapa967_mesh_0003

# Faces
f 1/1/1 2/2/1 3/3/1 4/4/1
f 5/5/1 6/6/1 7/7/1 8/8/1
f 9/9/1 10/10/1 11/11/1 12/12/1
f 13/9/1 14/10/1 15/11/1 16/12/1

