# Tiled2Unity generated file. Do not modify by hand.
# Wavefront file for 'mapa973_980_mesh_0006.obj'

# Vertices (Count = 120)
v -37 -42 0
v -38 -42 0
v -38 -41 0
v -37 -41 0
v -38 -42 0
v -39 -42 0
v -39 -41 0
v -38 -41 0
v -39 -42 0
v -40 -42 0
v -40 -41 0
v -39 -41 0
v -40 -42 0
v -41 -42 0
v -41 -41 0
v -40 -41 0
v -41 -42 0
v -42 -42 0
v -42 -41 0
v -41 -41 0
v -42 -42 0
v -43 -42 0
v -43 -41 0
v -42 -41 0
v -37 -43 0
v -38 -43 0
v -38 -42 0
v -37 -42 0
v -38 -43 0
v -39 -43 0
v -39 -42 0
v -38 -42 0
v -39 -43 0
v -40 -43 0
v -40 -42 0
v -39 -42 0
v -40 -43 0
v -41 -43 0
v -41 -42 0
v -40 -42 0
v -41 -43 0
v -42 -43 0
v -42 -42 0
v -41 -42 0
v -42 -43 0
v -43 -43 0
v -43 -42 0
v -42 -42 0
v -37 -44 0
v -38 -44 0
v -38 -43 0
v -37 -43 0
v -38 -44 0
v -39 -44 0
v -39 -43 0
v -38 -43 0
v -39 -44 0
v -40 -44 0
v -40 -43 0
v -39 -43 0
v -40 -44 0
v -41 -44 0
v -41 -43 0
v -40 -43 0
v -41 -44 0
v -42 -44 0
v -42 -43 0
v -41 -43 0
v -42 -44 0
v -43 -44 0
v -43 -43 0
v -42 -43 0
v -37 -45 0
v -38 -45 0
v -38 -44 0
v -37 -44 0
v -38 -45 0
v -39 -45 0
v -39 -44 0
v -38 -44 0
v -39 -45 0
v -40 -45 0
v -40 -44 0
v -39 -44 0
v -40 -45 0
v -41 -45 0
v -41 -44 0
v -40 -44 0
v -41 -45 0
v -42 -45 0
v -42 -44 0
v -41 -44 0
v -42 -45 0
v -43 -45 0
v -43 -44 0
v -42 -44 0
v -37 -46 0
v -38 -46 0
v -38 -45 0
v -37 -45 0
v -38 -46 0
v -39 -46 0
v -39 -45 0
v -38 -45 0
v -39 -46 0
v -40 -46 0
v -40 -45 0
v -39 -45 0
v -40 -46 0
v -41 -46 0
v -41 -45 0
v -40 -45 0
v -41 -46 0
v -42 -46 0
v -42 -45 0
v -41 -45 0
v -42 -46 0
v -43 -46 0
v -43 -45 0
v -42 -45 0

# Texture cooridinates (Count = 42)
vt 0 0.8241758
vt 0.1568628 0.8241758
vt 0.1568628 1
vt 0 1
vt 0.3137255 0.8241758
vt 0.3137255 1
vt 0.4705882 0.8241758
vt 0.4705882 1
vt 0.627451 0.8241758
vt 0.627451 1
vt 0.7843137 0.8241758
vt 0.7843137 1
vt 0.9411765 0.8241758
vt 0.9411765 1
vt 0 0.6483517
vt 0.1568628 0.6483517
vt 0.3137255 0.6483517
vt 0.4705882 0.6483517
vt 0.627451 0.6483517
vt 0.7843137 0.6483517
vt 0.9411765 0.6483517
vt 0 0.4725274
vt 0.1568628 0.4725274
vt 0.3137255 0.4725274
vt 0.4705882 0.4725274
vt 0.627451 0.4725274
vt 0.7843137 0.4725274
vt 0.9411765 0.4725274
vt 0 0.2967033
vt 0.1568628 0.2967033
vt 0.3137255 0.2967033
vt 0.4705882 0.2967033
vt 0.627451 0.2967033
vt 0.7843137 0.2967033
vt 0.9411765 0.2967033
vt 0 0.1208791
vt 0.1568628 0.1208791
vt 0.3137255 0.1208791
vt 0.4705882 0.1208791
vt 0.627451 0.1208791
vt 0.7843137 0.1208791
vt 0.9411765 0.1208791

# Normal
vn 0 0 -1

# Mesh description
g mapa973_980_mesh_0006

# Faces
f 1/1/1 2/2/1 3/3/1 4/4/1
f 5/2/1 6/5/1 7/6/1 8/3/1
f 9/5/1 10/7/1 11/8/1 12/6/1
f 13/7/1 14/9/1 15/10/1 16/8/1
f 17/9/1 18/11/1 19/12/1 20/10/1
f 21/11/1 22/13/1 23/14/1 24/12/1
f 25/15/1 26/16/1 27/2/1 28/1/1
f 29/16/1 30/17/1 31/5/1 32/2/1
f 33/17/1 34/18/1 35/7/1 36/5/1
f 37/18/1 38/19/1 39/9/1 40/7/1
f 41/19/1 42/20/1 43/11/1 44/9/1
f 45/20/1 46/21/1 47/13/1 48/11/1
f 49/22/1 50/23/1 51/16/1 52/15/1
f 53/23/1 54/24/1 55/17/1 56/16/1
f 57/24/1 58/25/1 59/18/1 60/17/1
f 61/25/1 62/26/1 63/19/1 64/18/1
f 65/26/1 66/27/1 67/20/1 68/19/1
f 69/27/1 70/28/1 71/21/1 72/20/1
f 73/29/1 74/30/1 75/23/1 76/22/1
f 77/30/1 78/31/1 79/24/1 80/23/1
f 81/31/1 82/32/1 83/25/1 84/24/1
f 85/32/1 86/33/1 87/26/1 88/25/1
f 89/33/1 90/34/1 91/27/1 92/26/1
f 93/34/1 94/35/1 95/28/1 96/27/1
f 97/36/1 98/37/1 99/30/1 100/29/1
f 101/37/1 102/38/1 103/31/1 104/30/1
f 105/38/1 106/39/1 107/32/1 108/31/1
f 109/39/1 110/40/1 111/33/1 112/32/1
f 113/40/1 114/41/1 115/34/1 116/33/1
f 117/41/1 118/42/1 119/35/1 120/34/1

